<?xml version="1.0" standalone="no"?>
<!DOCTYPE svg PUBLIC "-//W3C//DTD SVG 20010904//EN"
 "http://www.w3.org/TR/2001/REC-SVG-20010904/DTD/svg10.dtd">
<svg version="1.0" xmlns="http://www.w3.org/2000/svg"
 width="1920.000000pt" height="949.000000pt" viewBox="0 0 1920.000000 949.000000"
 preserveAspectRatio="xMidYMid meet">
<metadata>
Created by potrace 1.15, written by Peter Selinger 2001-2017
</metadata>
<g transform="translate(0.000000,949.000000) scale(0.100000,-0.100000)"
fill="#000000" stroke="none">
<path d="M0 4846 c0 -4415 1 -4645 18 -4650 25 -8 410 -62 602 -86 950 -115
2002 -134 2950 -54 603 51 1237 145 1834 274 231 50 361 81 916 224 489 125
1191 276 1286 276 86 0 712 -138 1314 -291 912 -230 1428 -331 2165 -423 905
-114 1960 -139 2925 -70 1477 105 3005 444 4345 964 l160 62 140 -12 c77 -6
231 -21 343 -34 l202 -22 0 4243 0 4243 -9600 0 -9600 0 0 -4644z"/>
</g>
</svg>
